ply
format ascii 1.0
comment : 
comment : MagicaVoxel @ Ephtracy
element vertex 24
property float x
property float y
property float z
property uchar red
property uchar green
property uchar blue
element face 6
property list uchar int vertex_index
end_header
-0.5 0 0.5 251 226 81
-0.5 1 0.5 251 226 81
-0.5 1 -0.5 251 226 81
-0.5 0 -0.5 251 226 81
0.5 0 0.5 251 226 81
0.5 0 -0.5 251 226 81
0.5 1 -0.5 251 226 81
0.5 1 0.5 251 226 81
-0.5 0 0.5 251 226 81
0.5 0 0.5 251 226 81
0.5 1 0.5 251 226 81
-0.5 1 0.5 251 226 81
-0.5 0 -0.5 251 226 81
-0.5 1 -0.5 251 226 81
0.5 1 -0.5 251 226 81
0.5 0 -0.5 251 226 81
-0.5 0 0.5 251 226 81
-0.5 0 -0.5 251 226 81
0.5 0 -0.5 251 226 81
0.5 0 0.5 251 226 81
-0.5 1 0.5 251 226 81
0.5 1 0.5 251 226 81
0.5 1 -0.5 251 226 81
-0.5 1 -0.5 251 226 81
4 0 1 2 3
4 4 5 6 7
4 8 9 10 11
4 12 13 14 15
4 16 17 18 19
4 20 21 22 23
