# WaveFront *.obj file (generated by Cheetah3D)

mtllib ground.mtl

g Disc
v 0.000000 0.000000 1.000000
v -0.382683 0.000000 0.923880
v -0.707107 0.000000 0.707107
v -0.923879 0.000000 0.382684
v -1.000000 0.000000 0.000000
v -0.923880 0.000000 -0.382684
v -0.707107 0.000000 -0.707107
v -0.382683 0.000000 -0.923880
v -0.000000 0.000000 -1.000000
v 0.382683 0.000000 -0.923880
v 0.707107 0.000000 -0.707107
v 0.923880 0.000000 -0.382683
v 1.000000 0.000000 -0.000000
v 0.923880 0.000000 0.382683
v 0.707107 0.000000 0.707107
v 0.382683 0.000000 0.923880

vt 0.500000 0.000000
vt 0.308658 0.038060
vt 0.146447 0.146447
vt 0.038060 0.308658
vt 0.000000 0.500000
vt 0.038060 0.691342
vt 0.146447 0.853553
vt 0.308658 0.961940
vt 0.500000 1.000000
vt 0.691342 0.961940
vt 0.853553 0.853553
vt 0.961940 0.691342
vt 1.000000 0.500000
vt 0.961940 0.308658
vt 0.853553 0.146447
vt 0.691342 0.038060

vn 0.000000 1.000000 0.000000

usemtl Material
f 15/15/1 14/14/1 16/16/1
f 13/13/1 12/12/1 14/14/1
f 11/11/1 10/10/1 12/12/1
f 9/9/1 8/8/1 10/10/1
f 7/7/1 6/6/1 8/8/1
f 5/5/1 4/4/1 6/6/1
f 3/3/1 2/2/1 4/4/1
f 1/1/1 16/16/1 2/2/1
f 14/14/1 12/12/1 16/16/1
f 10/10/1 8/8/1 12/12/1
f 6/6/1 4/4/1 8/8/1
f 2/2/1 16/16/1 4/4/1
f 12/12/1 8/8/1 16/16/1
f 4/4/1 16/16/1 8/8/1

usemtl default

